<svg width="68" height="8" viewBox="0 0 68 8" fill="none" xmlns="http://www.w3.org/2000/svg">
<path fill-rule="evenodd" clip-rule="evenodd" d="M13.8787 6.12132L16 4L18.1213 1.87868C17.5784 1.33579 16.8284 1 16 1C14.3431 1 13 2.34315 13 4C13 4.82843 13.3358 5.57843 13.8787 6.12132ZM13.1716 6.82843C12.4477 6.10457 12 5.10457 12 4C12 1.79086 13.7909 0 16 0C17.1046 0 18.1046 0.447715 18.8284 1.17157C19.5523 1.89543 20 2.89543 20 4C20 5.10457 19.5523 6.10457 18.8284 6.82843C18.1046 7.55228 17.1046 8 16 8C14.902 8 13.9073 7.55756 13.1844 6.84123C13.1801 6.83697 13.1759 6.83271 13.1716 6.82843Z" fill="black" fill-opacity="0.8"/>
<path fill-rule="evenodd" clip-rule="evenodd" d="M61.8787 6.12132L64 4L66.1213 1.87868C65.5784 1.33579 64.8284 1 64 1C62.3431 1 61 2.34315 61 4C61 4.82843 61.3358 5.57843 61.8787 6.12132ZM61.1716 6.82843C60.4477 6.10457 60 5.10457 60 4C60 1.79086 61.7909 0 64 0C65.1046 0 66.1046 0.447715 66.8284 1.17157C67.5523 1.89543 68 2.89543 68 4C68 5.10457 67.5523 6.10457 66.8284 6.82843C66.1046 7.55228 65.1046 8 64 8C62.902 8 61.9073 7.55756 61.1844 6.84123C61.1801 6.83697 61.1759 6.83271 61.1716 6.82843Z" fill="black" fill-opacity="0.4"/>
<circle cx="4" cy="4" r="4" fill="black" fill-opacity="0.8"/>
<circle cx="52" cy="4" r="4" fill="black" fill-opacity="0.4"/>
<circle cx="28" cy="4" r="4" fill="#F05446"/>
<path fill-rule="evenodd" clip-rule="evenodd" d="M37.8787 6.12132L40 4L42.1213 1.87868C41.5784 1.33579 40.8284 1 40 1C38.3431 1 37 2.34315 37 4C37 4.82843 37.3358 5.57843 37.8787 6.12132ZM37.1716 6.82843C36.4477 6.10457 36 5.10457 36 4C36 1.79086 37.7909 0 40 0C41.1046 0 42.1046 0.447715 42.8284 1.17157C43.5523 1.89543 44 2.89543 44 4C44 5.10457 43.5523 6.10457 42.8284 6.82843C42.1046 7.55228 41.1046 8 40 8C38.902 8 37.9073 7.55756 37.1844 6.84123C37.1801 6.83697 37.1759 6.83271 37.1716 6.82843Z" fill="#F05446"/>
</svg>
