<svg width="20" height="20" viewBox="0 0 20 20" fill="none" xmlns="http://www.w3.org/2000/svg">
<path fill-rule="evenodd" clip-rule="evenodd" d="M5.97263 4.76337C6.02899 4.68502 6.09158 4.58911 6.17139 4.45978C6.20053 4.41257 6.27993 4.28157 6.33912 4.18391L6.33929 4.18364L6.40598 4.07374C7.0654 2.99508 7.54475 2.5 8.40909 2.5H11.5909C12.4553 2.5 12.9346 2.99508 13.594 4.07374L13.6606 4.18352L13.6612 4.18444C13.7204 4.28204 13.7995 4.41265 13.8286 4.45978C13.9084 4.58911 13.971 4.68502 14.0274 4.76337C14.0645 4.81503 14.097 4.85609 14.1235 4.88636H16.3636C17.6816 4.88636 18.75 5.95478 18.75 7.27273V14.4318C18.75 15.7498 17.6816 16.8182 16.3636 16.8182H3.63636C2.31841 16.8182 1.25 15.7498 1.25 14.4318V7.27273C1.25 5.95478 2.31841 4.88636 3.63636 4.88636H5.87652C5.903 4.85609 5.93546 4.81503 5.97263 4.76337ZM3.63656 6.47723C3.19724 6.47723 2.8411 6.83336 2.8411 7.27268V14.4318C2.8411 14.8711 3.19724 15.2272 3.63656 15.2272H16.3638C16.8031 15.2272 17.1593 14.8711 17.1593 14.4318V7.27268C17.1593 6.83336 16.8031 6.47723 16.3638 6.47723H13.9775C13.449 6.47723 13.0926 6.18801 12.7361 5.69232C12.654 5.57827 12.5728 5.45373 12.475 5.29525C12.4414 5.24096 12.3545 5.09742 12.2948 4.99892L12.2947 4.9988L12.2369 4.90349C11.8771 4.31496 11.6601 4.09086 11.5911 4.09086H8.40929C8.3403 4.09086 8.12332 4.31496 7.76353 4.90349L7.70566 4.99888L7.70564 4.99891C7.64594 5.09741 7.55894 5.24096 7.52543 5.29525C7.42763 5.45373 7.34636 5.57827 7.26432 5.69232C6.90776 6.18801 6.55138 6.47723 6.02292 6.47723H3.63656ZM16.3632 8.06816C16.3632 8.50748 16.0071 8.86361 15.5678 8.86361C15.1285 8.86361 14.7723 8.50748 14.7723 8.06816C14.7723 7.62884 15.1285 7.27271 15.5678 7.27271C16.0071 7.27271 16.3632 7.62884 16.3632 8.06816ZM6.02273 10.4545C6.02273 12.6511 7.80341 14.4318 10 14.4318C12.1966 14.4318 13.9773 12.6511 13.9773 10.4545C13.9773 8.25791 12.1966 6.47723 10 6.47723C7.80341 6.47723 6.02273 8.25791 6.02273 10.4545ZM12.386 10.4546C12.386 11.7725 11.3176 12.8409 9.99961 12.8409C8.68166 12.8409 7.61325 11.7725 7.61325 10.4546C7.61325 9.13662 8.68166 8.06821 9.99961 8.06821C11.3176 8.06821 12.386 9.13662 12.386 10.4546Z" fill="#2B4A8E"/>
</svg>
