<svg width="14" height="14" viewBox="0 0 14 14" fill="none" xmlns="http://www.w3.org/2000/svg">
<path fill-rule="evenodd" clip-rule="evenodd" d="M12.2185 1.1665L12.7982 11.6018C12.8339 12.2451 12.3414 12.7956 11.6981 12.8314C11.6657 12.8329 11.6657 12.8329 11.6334 12.8332H11.6334H11.6333H2.36662C1.72229 12.8332 1.19995 12.3108 1.19995 11.6665C1.20025 11.6341 1.20025 11.6341 1.20175 11.6018L1.78149 1.1665H12.2185ZM2.88514 2.33317L2.36662 11.6665H11.6333L11.1148 2.33317H2.88514ZM5.24999 3.49984H4.08332V4.95817C4.08332 6.35858 5.43855 7.58317 6.99999 7.58317C8.56143 7.58317 9.91666 6.35858 9.91666 4.95817V3.49984H8.74999V4.95817C8.74999 5.68639 7.94199 6.4165 6.99999 6.4165C6.05799 6.4165 5.24999 5.68639 5.24999 4.95817V3.49984Z" fill="#2B4A8E"/>
</svg>
