<svg width="81" height="80" viewBox="0 0 81 80" fill="none" xmlns="http://www.w3.org/2000/svg">
<circle cx="40.5" cy="40" r="40" fill="#EFF3FA"/>
<path fill-rule="evenodd" clip-rule="evenodd" d="M34.4918 20C35.9964 18.7259 38.1783 18 40.5 18C42.8217 18 45.0036 18.7259 46.5082 20H48.5C50.7091 20 52.5 21.7909 52.5 24H54.5C56.7091 24 58.5 25.7909 58.5 28V58C58.5 60.2091 56.7091 62 54.5 62H26.5C24.2909 62 22.5 60.2091 22.5 58V28C22.5 25.7909 24.2909 24 26.5 24H28.5C28.5 21.7909 30.2909 20 32.5 20H34.4918ZM48.5 30C49.9806 30 51.2733 29.1956 51.9649 28H54.5V58H26.5V28H29.0351C29.7267 29.1956 31.0194 30 32.5 30H48.5ZM36.2152 24L36.8133 23.3108C37.4704 22.5535 38.8788 22 40.5 22C42.1212 22 43.5296 22.5535 44.1867 23.3108L44.7848 24H48.5V26H32.5V24H35.3027H36.2152Z" fill="#2B4A8E"/>
<path d="M38.2394 46.752V46.296C38.2394 45.656 38.3674 45.12 38.6234 44.688C38.8954 44.256 39.2554 43.832 39.7034 43.416C40.1194 43.016 40.5274 42.672 40.9274 42.384C41.3274 42.096 41.6554 41.792 41.9114 41.472C42.1674 41.152 42.2954 40.776 42.2954 40.344C42.2954 39.72 42.0714 39.28 41.6234 39.024C41.1914 38.752 40.4634 38.616 39.4394 38.616C38.7674 38.616 38.1034 38.704 37.4474 38.88C36.7914 39.04 36.2314 39.248 35.7674 39.504V36.264C36.3594 35.976 37.0554 35.744 37.8554 35.568C38.6714 35.392 39.5594 35.304 40.5194 35.304C42.3754 35.304 43.7914 35.712 44.7674 36.528C45.7434 37.328 46.2314 38.432 46.2314 39.84C46.2314 40.736 46.0474 41.464 45.6794 42.024C45.3114 42.568 44.7754 43.128 44.0714 43.704C43.4794 44.2 42.9834 44.632 42.5834 45C42.1834 45.352 41.9834 45.832 41.9834 46.44V46.752H38.2394ZM38.0714 51V48.216H42.1274V51H38.0714Z" fill="#FDC20F"/>
</svg>
