<svg width="16" height="16" viewBox="0 0 16 16" fill="none" xmlns="http://www.w3.org/2000/svg">
<path d="M14.0644 10.9939L12.2744 9.2076C11.6351 8.56964 10.5483 8.82485 10.2926 9.65417C10.1008 10.2284 9.46149 10.5473 8.88613 10.4197C7.60753 10.1007 5.88142 8.44205 5.56177 7.10234C5.36998 6.52816 5.75356 5.8902 6.32893 5.69884C7.16002 5.44366 7.41574 4.35913 6.77644 3.72118L4.9864 1.9349C4.47496 1.48833 3.70781 1.48833 3.2603 1.9349L2.04563 3.14702C0.830962 4.42293 2.17349 7.80409 5.17819 10.8025C8.1829 13.8009 11.5712 15.2044 12.8498 13.9285L14.0644 12.7164C14.512 12.206 14.512 11.4404 14.0644 10.9939Z" fill="#5378CB"/>
</svg>
