<svg width="80" height="80" viewBox="0 0 80 80" fill="none" xmlns="http://www.w3.org/2000/svg">
<circle cx="40" cy="40" r="40" fill="#EFF3FA"/>
<path fill-rule="evenodd" clip-rule="evenodd" d="M52.7273 27.2727C54.7356 27.2727 56.3636 28.9008 56.3636 30.9091V32.7273C58.3719 32.7273 60 34.3553 60 36.3636L59.9567 36.7581L56.3563 52.9598C56.2364 54.8597 54.6575 56.3636 52.7273 56.3636L23.6364 56.3636C22.1301 56.3636 20.8378 55.4478 20.2858 54.1427C20.1018 53.7076 20 53.2293 20 52.7273V27.2727C20 25.2644 21.6281 23.6364 23.6364 23.6364H34.5455C36.5818 23.6364 37.8781 24.5008 39.18 26.1434C39.216 26.1888 39.3038 26.3019 39.401 26.4272C39.5382 26.6041 39.6942 26.8051 39.75 26.8742C39.8063 26.9441 39.8539 27.0019 39.8931 27.0496C40.053 27.2441 40.0762 27.2723 40.0032 27.2727H52.7273ZM52.7273 30.9091V32.7273H27.2727C25.1516 32.7273 24.2004 33.8572 23.6893 35.928L23.6364 36.1663V27.2727H34.5455C35.2441 27.2727 35.6491 27.5428 36.3302 28.4021C36.3516 28.4291 36.413 28.5082 36.4894 28.6068L36.4895 28.6069L36.4896 28.607C36.6357 28.7954 36.8369 29.0547 36.9197 29.1573C37.834 30.2907 38.6845 30.9021 39.9903 30.9091L52.7273 30.9091ZM52.7273 52.7273H23.6808L27.2295 36.758C27.2726 36.5842 27.3104 36.4537 27.3388 36.3636H56.3193L52.7706 52.3328L52.7273 52.7273Z" fill="#2B4A8E"/>
</svg>
