<svg width="12" height="12" viewBox="0 0 12 12" fill="none" xmlns="http://www.w3.org/2000/svg">
<path fill-rule="evenodd" clip-rule="evenodd" d="M3.59996 2.4H2.39996V1.79996H1.20007V3.60004H10.8001V1.79996H9.59996V2.4H8.39996V1.79996H3.59996V2.4ZM10.8001 4.80004H1.20007V10.8H10.8001V4.80004ZM8.39996 0.600037H3.59996V0H2.39996V0.600037H1.2C0.537258 0.600037 0 1.13729 0 1.80004V10.8C0 11.4628 0.537258 12 1.2 12H10.8C11.4627 12 12 11.4628 12 10.8V1.80004C12 1.13729 11.4627 0.600037 10.8 0.600037H9.59996V0H8.39996V0.600037ZM4.2 7.2H3V6H4.2V7.2ZM5.39996 7.2H6.59996V6H5.39996V7.2ZM8.99993 7.2H7.79993V6H8.99993V7.2ZM3 9.59996H4.2V8.39996H3V9.59996ZM6.59996 9.59996H5.39996V8.39996H6.59996V9.59996Z" fill="#2B4A8E"/>
</svg>
