<svg width="40" height="40" viewBox="0 0 40 40" fill="none" xmlns="http://www.w3.org/2000/svg">
<path fill-rule="evenodd" clip-rule="evenodd" d="M26.6562 28.897L28.8733 26.6798L28.0925 23.843L28.4327 23.0305L31 21.5818V18.4464L28.44 16.9917L28.1055 16.1807L28.8961 13.3424L26.6774 11.1268L23.8403 11.9075L23.0296 11.5676L21.5808 9H18.4454L16.9907 11.56L16.1798 11.8945L13.342 11.1028L11.1267 13.3181L11.9075 16.1557L11.5676 16.9663L9 18.4151V21.5496L11.5577 23.0076L11.8925 23.8193L11.102 26.6572L13.3181 28.8733L16.1557 28.0925L16.9664 28.4325L18.4153 30.999H21.5498L23.0067 28.4412L23.8183 28.1065L26.6562 28.897ZM26.8527 21.6256L25.9809 23.7078L26.6362 26.0886L26.0678 26.657L23.692 25.9951L21.609 26.8542L20.3873 28.999H19.5829L18.3714 26.8529L16.2916 25.9808L13.9095 26.6362L13.342 26.0688L14.0039 23.693L13.1448 21.6101L11 20.3876V19.583L13.1471 18.3715L14.0192 16.2916L13.3638 13.9095L13.93 13.3432L16.3058 14.0059L18.3895 13.1466L19.6093 11H20.4129L21.6245 13.1471L23.7044 14.0192L26.087 13.3636L26.6558 13.9317L25.9941 16.307L26.8534 18.3906L29 19.6103V20.4139L26.8527 21.6256ZM20 24C17.7909 24 16 22.2091 16 20C16 17.7909 17.7909 16 20 16C22.2091 16 24 17.7909 24 20C24 22.2091 22.2091 24 20 24ZM22 20C22 21.1046 21.1046 22 20 22C18.8954 22 18 21.1046 18 20C18 18.8954 18.8954 18 20 18C21.1046 18 22 18.8954 22 20Z" fill="#2B4A8E"/>
</svg>
