<svg width="40" height="40" viewBox="0 0 40 40" fill="none" xmlns="http://www.w3.org/2000/svg">
<path fill-rule="evenodd" clip-rule="evenodd" d="M21 19C19.1362 19 17.5701 17.7252 17.126 16H10V14H17.126C17.5701 12.2748 19.1362 11 21 11C23.2091 11 25 12.7909 25 15C25 17.2091 23.2091 19 21 19ZM27 14H30V16H27V14ZM16 29C14.1362 29 12.5701 27.7252 12.126 26H10V24H12.126C12.5701 22.2748 14.1362 21 16 21C18.2091 21 20 22.7909 20 25C20 27.2091 18.2091 29 16 29ZM22 26H30V24H22V26ZM18 25C18 26.1046 17.1046 27 16 27C14.8954 27 14 26.1046 14 25C14 23.8954 14.8954 23 16 23C17.1046 23 18 23.8954 18 25ZM23 15C23 16.1046 22.1046 17 21 17C19.8954 17 19 16.1046 19 15C19 13.8954 19.8954 13 21 13C22.1046 13 23 13.8954 23 15Z" fill="white"/>
</svg>
