<?xml version="1.0" encoding="utf-8"?>
<!-- Generator: Adobe Illustrator 25.2.1, SVG Export Plug-In . SVG Version: 6.00 Build 0)  -->
<svg version="1.1" id="Layer_1" xmlns="http://www.w3.org/2000/svg" xmlns:xlink="http://www.w3.org/1999/xlink" x="0px" y="0px"
	 viewBox="0 0 40 40" style="enable-background:new 0 0 40 40;" xml:space="preserve">
<style type="text/css">
	.st0{fill-rule:evenodd;clip-rule:evenodd;fill:#2B4A8E;}
</style>
<path class="st0" d="M21,19c-1.9,0-3.4-1.3-3.9-3H10v-2h7.1c0.4-1.7,2-3,3.9-3c2.2,0,4,1.8,4,4S23.2,19,21,19z M27,14h3v2h-3V14z
	 M16,29c-1.9,0-3.4-1.3-3.9-3H10v-2h2.1c0.4-1.7,2-3,3.9-3c2.2,0,4,1.8,4,4S18.2,29,16,29z M22,26h8v-2h-8V26z M18,25
	c0,1.1-0.9,2-2,2s-2-0.9-2-2s0.9-2,2-2S18,23.9,18,25z M23,15c0,1.1-0.9,2-2,2s-2-0.9-2-2s0.9-2,2-2S23,13.9,23,15z"/>
</svg>
