<svg width="20" height="20" viewBox="0 0 20 20" fill="none" xmlns="http://www.w3.org/2000/svg">
<path fill-rule="evenodd" clip-rule="evenodd" d="M17.3636 4.63636C18.2674 4.63636 19 5.36899 19 6.27273V16.0909C19 16.9946 18.2674 17.7273 17.3636 17.7273H2.63636C1.73262 17.7273 1 16.9946 1 16.0909V4.63636C1 3.73262 1.73262 3 2.63636 3H7.54545C8.46182 3 9.04513 3.38901 9.63098 4.12815C9.64719 4.14861 9.6867 4.19952 9.73046 4.25591L9.73051 4.25597C9.79224 4.33553 9.86241 4.42595 9.88749 4.45703C9.91285 4.48848 9.93424 4.51449 9.95191 4.53599C10.0239 4.6235 10.0343 4.63619 10.0015 4.63636H17.3636ZM2.63636 16.0909H17.3636V6.27273L9.99562 6.27272C9.40804 6.26957 9.02529 5.99447 8.61386 5.48444C8.57658 5.43823 8.48601 5.32148 8.42025 5.2367L8.42007 5.23648C8.38574 5.19222 8.3582 5.15672 8.34858 5.14458C8.04211 4.75792 7.85984 4.63636 7.54545 4.63636H2.63636V16.0909ZM12.4545 11.1818C12.4545 12.5374 11.3556 13.6364 10 13.6364C8.64439 13.6364 7.54545 12.5374 7.54545 11.1818C7.54545 9.82621 8.64439 8.72727 10 8.72727C11.3556 8.72727 12.4545 9.82621 12.4545 11.1818ZM5.90909 11.1818C5.90909 13.4412 7.74065 15.2727 10 15.2727C12.2593 15.2727 14.0909 13.4412 14.0909 11.1818C14.0909 8.92247 12.2593 7.09091 10 7.09091C7.74065 7.09091 5.90909 8.92247 5.90909 11.1818ZM14.9091 7.90909C14.9091 8.36096 15.2754 8.72727 15.7273 8.72727C16.1791 8.72727 16.5455 8.36096 16.5455 7.90909C16.5455 7.45722 16.1791 7.09091 15.7273 7.09091C15.2754 7.09091 14.9091 7.45722 14.9091 7.90909Z" fill="#2B4A8E"/>
</svg>
