<svg width="12" height="12" viewBox="0 0 12 12" fill="none" xmlns="http://www.w3.org/2000/svg">
<path fill-rule="evenodd" clip-rule="evenodd" d="M6 12C2.68629 12 0 9.31371 0 6C0 2.68629 2.68629 0 6 0C9.31371 0 12 2.68629 12 6C12 9.31371 9.31371 12 6 12ZM5.99998 10.9091C8.71119 10.9091 10.9091 8.71118 10.9091 5.99996C10.9091 3.28875 8.71119 1.09087 5.99998 1.09087C3.28876 1.09087 1.09089 3.28875 1.09089 5.99996C1.09089 8.71118 3.28876 10.9091 5.99998 10.9091ZM8.67846 7.88083L7.78614 7.25325C7.37958 7.83131 6.71969 8.18171 5.99997 8.18171C5.28024 8.18171 4.62035 7.83131 4.21379 7.25325L3.32148 7.88083C3.93021 8.74635 4.9213 9.27262 5.99997 9.27262C7.07863 9.27262 8.06972 8.74635 8.67846 7.88083ZM7.09089 5.45446V4.36355H8.1818V5.45446H7.09089ZM3.81817 4.36355V5.45446H4.90908V4.36355H3.81817Z" fill="#2B4A8E"/>
</svg>
