<svg width="12" height="12" viewBox="0 0 12 12" fill="none" xmlns="http://www.w3.org/2000/svg">
<path fill-rule="evenodd" clip-rule="evenodd" d="M4.27042 0.54544C4.68074 0.197981 5.27579 0 5.90897 0C6.54215 0 7.13719 0.197981 7.54751 0.54544H8.09073C8.6932 0.54544 9.1816 1.03384 9.1816 1.63632L9.72704 1.63632C10.3295 1.63632 10.8179 2.12472 10.8179 2.7272V10.9088C10.8179 11.5113 10.3295 11.9997 9.72704 11.9997H2.09088C1.4884 11.9997 1 11.5113 1 10.9088V2.7272C1 2.12472 1.4884 1.63632 2.09088 1.63632L2.63633 1.63632C2.63633 1.03384 3.12473 0.54544 3.72721 0.54544H4.27042ZM8.09073 3.27264C8.4945 3.27264 8.84705 3.05326 9.03566 2.7272H9.72704V10.9088H2.09088V2.7272H2.78227C2.97089 3.05326 3.32343 3.27264 3.72721 3.27264H8.09073ZM3.72722 8.18146V7.09058H6.99985V8.18146H3.72722ZM3.72722 4.90896V5.99984H8.09073V4.90896H3.72722ZM4.74043 1.63645L4.90354 1.44848C5.08274 1.24196 5.46685 1.09101 5.90897 1.09101C6.3511 1.09101 6.73521 1.24196 6.91441 1.44848L7.07751 1.63645H8.09073V2.18189H3.72722V1.63645H4.49157H4.74043Z" fill="#2B4A8E"/>
</svg>
