<svg width="40" height="40" viewBox="0 0 40 40" fill="none" xmlns="http://www.w3.org/2000/svg">
<path d="M23.7417 22.3276C24.529 21.2524 24.9999 19.9317 24.9999 18.5C24.9999 14.916 22.0839 12 18.5 12C14.916 12 12 14.916 12 18.5C12 22.084 14.916 25 18.5 25C19.9317 25 21.2525 24.529 22.3277 23.7417L26.586 28L28 26.5859C28 26.5859 23.7417 22.3276 23.7417 22.3276ZM18.5 23C16.0185 23 14 20.9815 14 18.5C14 16.0186 16.0185 14 18.5 14C20.9814 14 23 16.0186 23 18.5C23 20.9815 20.9814 23 18.5 23Z" fill="white"/>
</svg>
