<svg width="86" height="86" viewBox="0 0 86 86" fill="none" xmlns="http://www.w3.org/2000/svg">
<path d="M68.125 23.625H55.6015L54.3836 19.9712C53.6166 17.6706 51.472 16.125 49.0471 16.125H36.9529C34.528 16.125 32.3834 17.6706 31.6165 19.9712L30.3985 23.625H27.375V20.5C27.375 18.0876 25.4124 16.125 23 16.125H20.5C18.0876 16.125 16.125 18.0876 16.125 20.5V23.8515C13.179 24.6275 11 27.3138 11 30.5V63C11 66.7909 14.0841 69.875 17.875 69.875H68.125C71.9159 69.875 75 66.7909 75 63V30.5C75 26.7091 71.9159 23.625 68.125 23.625ZM19.875 20.5C19.875 20.1554 20.1554 19.875 20.5 19.875H23C23.3446 19.875 23.625 20.1554 23.625 20.5V23.625H19.875V20.5ZM71.25 63C71.25 64.7231 69.8481 66.125 68.125 66.125H17.875C16.1519 66.125 14.75 64.7231 14.75 63V30.5C14.75 28.7769 16.1519 27.375 17.875 27.375H31.75C32.557 27.375 33.2735 26.8586 33.5287 26.0929L35.174 21.1571C35.4297 20.3903 36.1445 19.875 36.9529 19.875H49.0471C49.8555 19.875 50.5704 20.3902 50.8259 21.157L52.4711 26.0929C52.7265 26.8586 53.443 27.375 54.25 27.375H68.125C69.8481 27.375 71.25 28.7769 71.25 30.5V63Z" fill="#2B4A8E"/>
<path d="M65.5 34.875C66.5355 34.875 67.375 34.0355 67.375 33C67.375 31.9645 66.5355 31.125 65.5 31.125C64.4645 31.125 63.625 31.9645 63.625 33C63.625 34.0355 64.4645 34.875 65.5 34.875Z" fill="#2B4A8E"/>
<path d="M24.25 31.125H20.5C19.4645 31.125 18.625 31.9645 18.625 33C18.625 34.0355 19.4645 34.875 20.5 34.875H24.25C25.2855 34.875 26.125 34.0355 26.125 33C26.125 31.9645 25.2855 31.125 24.25 31.125Z" fill="#2B4A8E"/>
<path d="M43 62.375C33.6951 62.375 26.125 54.8049 26.125 45.5C26.125 36.1951 33.6951 28.625 43 28.625C52.3049 28.625 59.875 36.1951 59.875 45.5C59.875 54.8049 52.3049 62.375 43 62.375ZM43 32.375C35.7629 32.375 29.875 38.2629 29.875 45.5C29.875 52.7371 35.7629 58.625 43 58.625C50.2371 58.625 56.125 52.7371 56.125 45.5C56.125 38.2629 50.2371 32.375 43 32.375Z" fill="#2B4A8E"/>
<path d="M43 54.875C37.8306 54.875 33.625 50.6694 33.625 45.5C33.625 40.3306 37.8306 36.125 43 36.125C48.1694 36.125 52.375 40.3306 52.375 45.5C52.375 50.6694 48.1694 54.875 43 54.875ZM43 39.875C39.8984 39.875 37.375 42.3984 37.375 45.5C37.375 48.6016 39.8984 51.125 43 51.125C46.1016 51.125 48.625 48.6016 48.625 45.5C48.625 42.3984 46.1016 39.875 43 39.875Z" fill="#2B4A8E"/>
</svg>
