<svg width="86" height="86" viewBox="0 0 86 86" fill="none" xmlns="http://www.w3.org/2000/svg">
<g clip-path="url(#clip0)">
<path d="M68.125 28.625H55.6015L54.3836 24.9712C53.6166 22.6706 51.472 21.125 49.0471 21.125H36.9529C34.528 21.125 32.3834 22.6706 31.6165 24.9712L30.3985 28.625H27.375V25.5C27.375 23.0876 25.4124 21.125 23 21.125H20.5C18.0876 21.125 16.125 23.0876 16.125 25.5V28.8515C13.179 29.6275 11 32.3138 11 35.5V68C11 71.7909 14.0841 74.875 17.875 74.875H68.125C71.9159 74.875 75 71.7909 75 68V35.5C75 31.7091 71.9159 28.625 68.125 28.625ZM19.875 25.5C19.875 25.1554 20.1554 24.875 20.5 24.875H23C23.3446 24.875 23.625 25.1554 23.625 25.5V28.625H19.875V25.5ZM71.25 68C71.25 69.7231 69.8481 71.125 68.125 71.125H17.875C16.1519 71.125 14.75 69.7231 14.75 68V35.5C14.75 33.7769 16.1519 32.375 17.875 32.375H31.75C32.557 32.375 33.2735 31.8586 33.5287 31.0929L35.174 26.1571C35.4297 25.3903 36.1445 24.875 36.9529 24.875H49.0471C49.8555 24.875 50.5704 25.3902 50.8259 26.157L52.4711 31.0929C52.7265 31.8586 53.443 32.375 54.25 32.375H68.125C69.8481 32.375 71.25 33.7769 71.25 35.5V68Z" fill="#2B4A8E"/>
<path d="M65.5 39.875C66.5355 39.875 67.375 39.0355 67.375 38C67.375 36.9645 66.5355 36.125 65.5 36.125C64.4645 36.125 63.625 36.9645 63.625 38C63.625 39.0355 64.4645 39.875 65.5 39.875Z" fill="#2B4A8E"/>
<path d="M24.25 36.125H20.5C19.4645 36.125 18.625 36.9645 18.625 38C18.625 39.0355 19.4645 39.875 20.5 39.875H24.25C25.2855 39.875 26.125 39.0355 26.125 38C26.125 36.9645 25.2855 36.125 24.25 36.125Z" fill="#2B4A8E"/>
<path d="M43 67.375C33.6951 67.375 26.125 59.8049 26.125 50.5C26.125 41.1951 33.6951 33.625 43 33.625C52.3049 33.625 59.875 41.1951 59.875 50.5C59.875 59.8049 52.3049 67.375 43 67.375ZM43 37.375C35.7629 37.375 29.875 43.2629 29.875 50.5C29.875 57.7371 35.7629 63.625 43 63.625C50.2371 63.625 56.125 57.7371 56.125 50.5C56.125 43.2629 50.2371 37.375 43 37.375Z" fill="#2B4A8E"/>
<path d="M43 59.875C37.8306 59.875 33.625 55.6694 33.625 50.5C33.625 45.3306 37.8306 41.125 43 41.125C48.1694 41.125 52.375 45.3306 52.375 50.5C52.375 55.6694 48.1694 59.875 43 59.875ZM43 44.875C39.8984 44.875 37.375 47.3984 37.375 50.5C37.375 53.6016 39.8984 56.125 43 56.125C46.1016 56.125 48.625 53.6016 48.625 50.5C48.625 47.3984 46.1016 44.875 43 44.875Z" fill="#2B4A8E"/>
<circle cx="71" cy="32" r="13.5" fill="#43B16D" stroke="#EFF3FA" stroke-width="3"/>
<path d="M76.63 28.3766C76.1374 27.8745 75.3365 27.8745 74.8439 28.3766L69.421 33.8956L67.1561 31.5909C66.6635 31.0888 65.8626 31.0888 65.37 31.5909C64.8767 32.093 64.8767 32.9069 65.37 33.4089L68.5279 36.6233C68.7743 36.8746 69.0976 37 69.421 37C69.7444 37 70.0678 36.8746 70.3141 36.6233L76.63 30.1946C77.1233 29.6925 77.1233 28.8786 76.63 28.3766Z" fill="white"/>
</g>
<defs>
<clipPath id="clip0">
<rect width="86" height="86" fill="white"/>
</clipPath>
</defs>
</svg>
