<svg width="18" height="18" viewBox="0 0 18 18" fill="none" xmlns="http://www.w3.org/2000/svg">
<path fill-rule="evenodd" clip-rule="evenodd" d="M2.25 3.5C1.2835 3.5 0.5 4.2835 0.5 5.25V12C0.5 12.9665 1.2835 13.75 2.25 13.75H2.9581C3.34376 14.6327 4.2245 15.25 5.25 15.25C6.2755 15.25 7.15625 14.6327 7.54191 13.75H10.4581C10.8438 14.6327 11.7245 15.25 12.75 15.25C13.7755 15.25 14.6563 14.6327 15.0419 13.75H15.75C16.7165 13.75 17.5 12.9665 17.5 12V8.46482L15.0257 6.81526L13.8517 4.46738C13.5553 3.8745 12.9493 3.5 12.2865 3.5H2.25ZM2.5 11.75V5.5H12.132L13.4743 8.18474L15.5 9.53518V11.75H15.0419C14.6563 10.8673 13.7755 10.25 12.75 10.25C11.7245 10.25 10.8438 10.8673 10.4581 11.75H7.5419C7.15624 10.8673 6.2755 10.25 5.25 10.25C4.2245 10.25 3.34376 10.8673 2.9581 11.75H2.5ZM4.74999 12.75C4.74999 12.4738 4.97385 12.25 5.24999 12.25C5.52613 12.25 5.74999 12.4738 5.74999 12.75C5.74999 13.0261 5.52613 13.25 5.24999 13.25C4.97385 13.25 4.74999 13.0261 4.74999 12.75ZM12.25 12.75C12.25 12.4738 12.4739 12.25 12.75 12.25C13.0261 12.25 13.25 12.4738 13.25 12.75C13.25 13.0261 13.0261 13.25 12.75 13.25C12.4739 13.25 12.25 13.0261 12.25 12.75Z" fill="#2B4A8E"/>
</svg>
