<svg width="80" height="80" viewBox="0 0 80 80" fill="none" xmlns="http://www.w3.org/2000/svg">
<circle cx="40" cy="40" r="40" fill="#EFF3FA"/>
<path fill-rule="evenodd" clip-rule="evenodd" d="M33.9918 20C35.4964 18.7259 37.6783 18 40 18C42.3217 18 44.5036 18.7259 46.0082 20H48C50.2091 20 52 21.7909 52 24H54C56.2091 24 58 25.7909 58 28V58C58 60.2091 56.2091 62 54 62H26C23.7909 62 22 60.2091 22 58V28C22 25.7909 23.7909 24 26 24H28C28 21.7909 29.7909 20 32 20H33.9918ZM48 30C49.4806 30 50.7733 29.1956 51.4649 28H54V58H26V28H28.5351C29.2267 29.1956 30.5194 30 32 30H48ZM35.7152 24L36.3133 23.3108C36.9704 22.5535 38.3788 22 40 22C41.6212 22 43.0296 22.5535 43.6867 23.3108L44.2848 24H48V26H32V24H34.8027H35.7152Z" fill="#2B4A8E"/>
<path fill-rule="evenodd" clip-rule="evenodd" d="M38 42V36H42V42H48V46H42V52H38V46H32V42H38Z" fill="#FDC20F"/>
</svg>
