<svg width="104" height="40" viewBox="0 0 104 40" fill="none" xmlns="http://www.w3.org/2000/svg">
<g clip-path="url(#clip0)">
<path d="M6.7797 6.84799H0V13.696H6.7797V6.84799Z" fill="white"/>
<path d="M6.7797 17.1115H0V33.1605H6.7797V17.1115Z" fill="white"/>
<path d="M16.8407 0H6.77972V6.84799H16.8407V0Z" fill="#FDC20F"/>
<path d="M16.8407 17.1115H6.77972V23.9595H16.8407V17.1115Z" fill="#FDC20F"/>
<path d="M21.8003 33.1605H6.77972V40.0084H21.8003V33.1605Z" fill="#FDC20F"/>
<path d="M28.6968 11.9755C28.6968 5.36369 23.3866 0 16.8407 0V6.86485C19.6377 6.86485 21.9004 9.15033 21.9004 11.9755C21.9004 14.8008 19.6377 17.0862 16.8407 17.0862V23.9511C23.3866 23.9511 28.6968 18.5958 28.6968 11.9755Z" fill="#FDC20F"/>
<path d="M30.2081 20.0042C29.1644 22.1463 27.528 23.9005 25.4907 25.0896C26.0919 25.9329 26.5177 26.9112 26.5177 28.0245C26.5177 30.8497 24.255 33.1351 21.4579 33.1351V40C28.0039 40 33.3141 34.6363 33.3141 28.0245C33.3141 24.9209 32.1201 22.1294 30.2081 20.0042Z" fill="#FDC20F"/>
<path d="M37.948 20.0717H51.1901V24.1282H42.298V28.1847H50.5222V32.2412H42.298V40.0084H37.948V20.0717V20.0717Z" fill="white"/>
<path d="M65.1168 31.5834C66.5112 31.3219 67.5716 30.6979 68.298 29.7111C69.0243 28.7244 69.3834 27.5269 69.3834 26.1269C69.3834 24.9631 69.183 23.9932 68.7822 23.2174C68.3814 22.4415 67.8387 21.8174 67.1624 21.362C66.4861 20.8982 65.6929 20.5777 64.7912 20.3753C63.8895 20.1813 62.9376 20.0801 61.9357 20.0801H54.296V23.7993H58.6461H61.4848C61.8773 23.7993 62.278 23.8246 62.6872 23.8836C63.0963 23.9426 63.4553 24.0523 63.7726 24.2125C64.0899 24.3728 64.3487 24.6005 64.5491 24.9041C64.7495 25.2077 64.858 25.6125 64.858 26.11C64.858 26.6582 64.7411 27.0799 64.5073 27.3751C64.2735 27.6787 63.9813 27.8979 63.6306 28.0329C63.28 28.1678 62.8875 28.2606 62.445 28.2859C62.0109 28.3112 61.5934 28.3281 61.2093 28.3281H58.6461H54.296V40.0084H58.6461V32.0388H60.7918L64.9164 40.0084H70.1348L65.1168 31.5834Z" fill="white"/>
<path d="M85.4309 31.8954V27.8389H76.8812V24.1198H85.9403V20.0717H72.5311V31.8954H76.8812H85.4309Z" fill="white"/>
<path d="M76.8812 35.9519H72.5311V40H86.4412V35.9519H76.8812Z" fill="white"/>
<path d="M103.499 24.1198V20.0717H90.09V24.1198H94.44H103.499Z" fill="white"/>
<path d="M94.44 35.9519V31.8954H102.99V27.8389H94.44H90.09V40H104V35.9519H94.44Z" fill="white"/>
</g>
<defs>
<clipPath id="clip0">
<rect width="104" height="40" fill="white"/>
</clipPath>
</defs>
</svg>
