<svg width="80" height="80" viewBox="0 0 80 80" fill="none" xmlns="http://www.w3.org/2000/svg">
<circle cx="40" cy="40" r="40" fill="#EFF3FA"/>
<g clip-path="url(#clip0)">
<path d="M57.7887 66.9265H21.9112C20.9658 66.9256 20.0595 66.5558 19.3911 65.8983C18.7226 65.2408 18.3467 64.3493 18.3457 63.4195V16.8472C18.3467 15.9173 18.7226 15.0259 19.3911 14.3684C20.0595 13.7109 20.9658 13.3411 21.9112 13.3401H57.7887C58.734 13.3411 59.6403 13.7109 60.3088 14.3684C60.9772 15.0259 61.3532 15.9173 61.3542 16.8472V63.4195C61.3532 64.3493 60.9772 65.2408 60.3088 65.8983C59.6403 66.5558 58.734 66.9256 57.7887 66.9265ZM21.9112 14.9638C21.403 14.9638 20.9156 15.1621 20.5559 15.5152C20.1963 15.8683 19.9937 16.3473 19.9927 16.8472V63.4195C19.9937 63.9193 20.1963 64.3983 20.5559 64.7514C20.9156 65.1045 21.403 65.3028 21.9112 65.3028H57.7887C58.2969 65.3028 58.7843 65.1045 59.1439 64.7514C59.5036 64.3983 59.7062 63.9193 59.7071 63.4195V16.8472C59.7062 16.3473 59.5036 15.8683 59.1439 15.5152C58.7843 15.1621 58.2969 14.9638 57.7887 14.9638H21.9112Z" fill="#2B4A8E"/>
<path d="M57.7888 67.2667H21.9112C20.8742 67.2657 19.8799 66.8601 19.1467 66.1388C18.4134 65.4175 18.001 64.4395 18 63.4195V16.8472C18.001 15.8272 18.4134 14.8492 19.1467 14.1279C19.8799 13.4066 20.8742 13.001 21.9112 13H57.7888C58.8258 13.001 59.82 13.4066 60.5533 14.1279C61.2866 14.8492 61.699 15.8272 61.7 16.8472V63.4195C61.699 64.4395 61.2866 65.4175 60.5533 66.1388C59.82 66.8601 58.8258 67.2657 57.7888 67.2667ZM21.9112 13.6802C21.0576 13.6812 20.2392 14.0151 19.6356 14.6089C19.032 15.2026 18.6925 16.0076 18.6915 16.8472V63.4195C18.6925 64.2588 19.0322 65.0634 19.6359 65.6565C20.2396 66.2496 21.0579 66.5828 21.9112 66.5828H57.7888C58.6417 66.5818 59.4595 66.2484 60.063 65.6554C60.6665 65.0625 61.0065 64.2585 61.0085 63.4195V16.8472C61.0065 16.0079 60.6666 15.2034 60.0633 14.6099C59.4599 14.0164 58.6421 13.6821 57.7888 13.6802H21.9112ZM57.7888 65.6429H21.9112C21.3114 65.6429 20.736 65.4088 20.3115 64.9919C19.887 64.575 19.648 64.0095 19.647 63.4195V16.8472C19.648 16.2568 19.8869 15.6909 20.3113 15.2734C20.7357 14.856 21.311 14.621 21.9112 14.6201H57.7888C58.389 14.621 58.9643 14.856 59.3887 15.2734C59.8131 15.6909 60.052 16.2568 60.053 16.8472V63.4195C60.052 64.0095 59.813 64.575 59.3885 64.9919C58.964 65.4088 58.3886 65.6429 57.7888 65.6429ZM21.9112 15.3076C21.4948 15.3076 21.0953 15.4701 20.8005 15.7594C20.5057 16.0487 20.3395 16.4412 20.3385 16.8509V63.4195C20.3395 63.8291 20.5057 64.2216 20.8005 64.5109C21.0953 64.8003 21.4948 64.9627 21.9112 64.9627H57.7888C58.2049 64.9627 58.604 64.8001 58.8982 64.5107C59.1924 64.2213 59.3577 63.8288 59.3577 63.4195V16.8472C59.3567 16.4385 59.191 16.0469 58.8969 15.7583C58.6027 15.4697 58.2042 15.3076 57.7888 15.3076H21.9112Z" fill="#2B4A8E"/>
<path d="M39.85 56.8405C37.0156 56.8405 34.2449 56.0138 31.8881 54.4651C29.5313 52.9163 27.6943 50.7149 26.6093 48.1393C25.5243 45.5637 25.24 42.7295 25.7924 39.995C26.3449 37.2605 27.7091 34.7484 29.7128 32.7765C31.7165 30.8046 34.2696 29.4614 37.0493 28.9166C39.8291 28.3718 42.7106 28.6499 45.3296 29.7158C47.9487 30.7817 50.1876 32.5875 51.7634 34.905C53.3391 37.2224 54.181 39.9473 54.1824 42.7353C54.1805 46.4744 52.6701 50.0598 49.9829 52.7044C47.2956 55.3491 43.6513 56.8366 39.85 56.8405ZM39.85 30.2648C37.3408 30.2648 34.8879 30.9968 32.8016 32.3682C30.7153 33.7396 29.0894 35.6888 28.1295 37.9693C27.1696 40.2497 26.9188 42.759 27.4089 45.1796C27.899 47.6003 29.1079 49.8236 30.8827 51.5683C32.6575 53.3131 34.9186 54.5009 37.3798 54.9816C39.841 55.4622 42.3918 55.214 44.7097 54.2685C47.0275 53.323 49.0082 51.7225 50.4012 49.6696C51.7942 47.6167 52.5369 45.2035 52.5354 42.7353C52.5295 39.4285 51.1909 36.2588 48.813 33.9212C46.4351 31.5836 43.2119 30.2687 39.85 30.2648Z" fill="#2B4A8E"/>
<path d="M39.8501 57.1806C36.9473 57.1806 34.1097 56.334 31.6961 54.7479C29.2824 53.1617 27.4011 50.9073 26.2899 48.2695C25.1787 45.6317 24.8876 42.7291 25.4534 39.9286C26.0191 37.1281 27.4164 34.5555 29.4684 32.5361C31.5204 30.5166 34.1351 29.1409 36.9819 28.583C39.8287 28.0251 42.7798 28.31 45.462 29.4016C48.1442 30.4933 50.4372 32.3427 52.0509 34.716C53.6647 37.0894 54.5268 39.8801 54.5283 42.7353C54.5263 46.5646 52.9795 50.2366 50.2274 52.945C47.4753 55.6533 43.7431 57.1767 39.8501 57.1806ZM39.8501 28.9849C37.0835 28.9849 34.379 29.792 32.0787 31.304C29.7785 32.8161 27.9858 34.9652 26.9274 37.4795C25.869 39.9938 25.5924 42.7604 26.1327 45.4293C26.673 48.0983 28.0058 50.5497 29.9626 52.4734C31.9195 54.3972 34.4123 55.7069 37.126 56.2369C39.8396 56.767 42.6521 56.4935 45.2077 55.451C47.7633 54.4086 49.9472 52.6441 51.4832 50.3807C53.0192 48.1173 53.8382 45.4567 53.8367 42.7353C53.8299 39.0893 52.3538 35.5947 49.7321 33.0172C47.1104 30.4398 43.5568 28.9897 39.8501 28.9849ZM39.8501 55.5605C37.272 55.5605 34.7518 54.8083 32.6084 53.3991C30.465 51.9898 28.7948 49.9868 27.8091 47.6436C26.8233 45.3004 26.5663 42.7222 27.0707 40.2353C27.575 37.7483 28.8179 35.4644 30.6422 33.6726C32.4665 31.8807 34.7902 30.6613 37.3192 30.1688C39.8483 29.6763 42.469 29.9328 44.8498 30.9057C47.2306 31.8787 49.2645 33.5244 50.6941 35.6347C52.1238 37.745 52.8849 40.225 52.8813 42.7609C52.8724 46.1561 51.496 49.4094 49.0536 51.8085C46.6112 54.2075 43.3017 55.5567 39.8501 55.5605ZM39.8501 30.6086C37.4089 30.6079 35.0223 31.3194 32.9924 32.6532C30.9624 33.9869 29.3802 35.883 28.446 38.1014C27.5118 40.3199 27.2676 42.761 27.7442 45.116C28.2208 47.4711 29.3968 49.6341 31.1235 51.3315C32.8502 53.0289 35.05 54.1844 37.4445 54.6518C39.839 55.1192 42.3206 54.8775 44.5754 53.9573C46.8302 53.037 48.7568 51.4796 50.1116 49.482C51.4663 47.4845 52.1882 45.1366 52.186 42.7353C52.1801 39.5196 50.8783 36.4374 48.5659 34.1643C46.2536 31.8911 43.1193 30.6125 39.8501 30.6086Z" fill="#2B4A8E"/>
<path d="M57.0267 22.0402H22.6735C22.4546 22.0402 22.2447 21.9546 22.0899 21.8024C21.9351 21.6501 21.8481 21.4436 21.8481 21.2283C21.8481 21.013 21.9351 20.8065 22.0899 20.6542C22.2447 20.502 22.4546 20.4164 22.6735 20.4164H57.0267C57.2456 20.4164 57.4556 20.502 57.6104 20.6542C57.7652 20.8065 57.8521 21.013 57.8521 21.2283C57.8521 21.4436 57.7652 21.6501 57.6104 21.8024C57.4556 21.9546 57.2456 22.0402 57.0267 22.0402Z" fill="#2B4A8E"/>
<path d="M57.0268 22.3803H22.6736C22.363 22.3803 22.0651 22.2589 21.8455 22.0429C21.6258 21.8268 21.5024 21.5338 21.5024 21.2283C21.5024 20.9228 21.6258 20.6298 21.8455 20.4138C22.0651 20.1977 22.363 20.0764 22.6736 20.0764H57.0268C57.3374 20.0764 57.6353 20.1977 57.8549 20.4138C58.0745 20.6298 58.1979 20.9228 58.1979 21.2283C58.1979 21.5338 58.0745 21.8268 57.8549 22.0429C57.6353 22.2589 57.3374 22.3803 57.0268 22.3803ZM22.6736 20.7566C22.5541 20.7669 22.443 20.8209 22.362 20.9079C22.2811 20.9949 22.2362 21.1086 22.2362 21.2265C22.2362 21.3444 22.2811 21.4581 22.362 21.5451C22.443 21.632 22.5541 21.686 22.6736 21.6964H57.0268C57.1462 21.686 57.2574 21.632 57.3383 21.5451C57.4193 21.4581 57.4642 21.3444 57.4642 21.2265C57.4642 21.1086 57.4193 20.9949 57.3383 20.9079C57.2574 20.8209 57.1462 20.7669 57.0268 20.7566H22.6736Z" fill="#2B4A8E"/>
<path d="M24.8593 18.6757H22.6732C22.5604 18.6832 22.4473 18.6678 22.3408 18.6304C22.2343 18.5931 22.1367 18.5347 22.0541 18.4587C21.9716 18.3828 21.9057 18.2909 21.8607 18.1889C21.8157 18.0869 21.7925 17.9769 21.7925 17.8657C21.7925 17.7545 21.8157 17.6445 21.8607 17.5425C21.9057 17.4405 21.9716 17.3486 22.0541 17.2727C22.1367 17.1967 22.2343 17.1383 22.3408 17.1009C22.4473 17.0636 22.5604 17.0482 22.6732 17.0557H24.8593C24.9721 17.0482 25.0853 17.0636 25.1918 17.1009C25.2983 17.1383 25.3958 17.1967 25.4784 17.2727C25.561 17.3486 25.6268 17.4405 25.6718 17.5425C25.7168 17.6445 25.7401 17.7545 25.7401 17.8657C25.7401 17.9769 25.7168 18.0869 25.6718 18.1889C25.6268 18.2909 25.561 18.3828 25.4784 18.4587C25.3958 18.5347 25.2983 18.5931 25.1918 18.6304C25.0853 18.6678 24.9721 18.6832 24.8593 18.6757Z" fill="#2B4A8E"/>
<path d="M24.8597 19.0158H22.6736C22.5145 19.0247 22.3553 19.0015 22.2056 18.9477C22.0559 18.8939 21.919 18.8106 21.8032 18.7029C21.6874 18.5952 21.5951 18.4654 21.5321 18.3215C21.469 18.1775 21.4365 18.0225 21.4365 17.8657C21.4365 17.709 21.469 17.5539 21.5321 17.4099C21.5951 17.266 21.6874 17.1362 21.8032 17.0285C21.919 16.9209 22.0559 16.8376 22.2056 16.7838C22.3553 16.7299 22.5145 16.7067 22.6736 16.7156H24.8597C25.0188 16.7067 25.1781 16.7299 25.3277 16.7838C25.4774 16.8376 25.6143 16.9209 25.7301 17.0285C25.846 17.1362 25.9382 17.266 26.0013 17.4099C26.0643 17.5539 26.0968 17.709 26.0968 17.8657C26.0968 18.0225 26.0643 18.1775 26.0013 18.3215C25.9382 18.4654 25.846 18.5952 25.7301 18.7029C25.6143 18.8106 25.4774 18.8939 25.3277 18.9477C25.1781 19.0015 25.0188 19.0247 24.8597 19.0158ZM22.6736 17.3958C22.5542 17.4062 22.443 17.4602 22.3621 17.5471C22.2811 17.6341 22.2362 17.7478 22.2362 17.8657C22.2362 17.9836 22.2811 18.0973 22.3621 18.1843C22.443 18.2713 22.5542 18.3253 22.6736 18.3356H24.8597C24.926 18.3414 24.9928 18.3335 25.0558 18.3125C25.1188 18.2915 25.1767 18.2579 25.2258 18.2137C25.2749 18.1695 25.3141 18.1157 25.3409 18.0558C25.3677 17.9959 25.3815 17.9312 25.3815 17.8657C25.3815 17.8003 25.3677 17.7355 25.3409 17.6756C25.3141 17.6157 25.2749 17.562 25.2258 17.5178C25.1767 17.4736 25.1188 17.4399 25.0558 17.4189C24.9928 17.3979 24.926 17.39 24.8597 17.3958H22.6736Z" fill="#2B4A8E"/>
<path d="M30.1875 18.6757H28.0013C27.8885 18.6832 27.7754 18.6678 27.6689 18.6304C27.5624 18.5931 27.4648 18.5347 27.3823 18.4587C27.2997 18.3828 27.2339 18.2909 27.1888 18.1889C27.1438 18.0869 27.1206 17.9769 27.1206 17.8657C27.1206 17.7545 27.1438 17.6445 27.1888 17.5425C27.2339 17.4405 27.2997 17.3486 27.3823 17.2727C27.4648 17.1967 27.5624 17.1383 27.6689 17.1009C27.7754 17.0636 27.8885 17.0482 28.0013 17.0557H30.1875C30.3002 17.0482 30.4134 17.0636 30.5199 17.1009C30.6264 17.1383 30.7239 17.1967 30.8065 17.2727C30.8891 17.3486 30.9549 17.4405 31 17.5425C31.045 17.6445 31.0682 17.7545 31.0682 17.8657C31.0682 17.9769 31.045 18.0869 31 18.1889C30.9549 18.2909 30.8891 18.3828 30.8065 18.4587C30.7239 18.5347 30.6264 18.5931 30.5199 18.6304C30.4134 18.6678 30.3002 18.6832 30.1875 18.6757Z" fill="#2B4A8E"/>
<path d="M30.1874 19.0158H28.0013C27.8422 19.0247 27.6829 19.0015 27.5332 18.9477C27.3836 18.8939 27.2466 18.8106 27.1308 18.7029C27.015 18.5952 26.9228 18.4654 26.8597 18.3215C26.7967 18.1775 26.7642 18.0225 26.7642 17.8657C26.7642 17.709 26.7967 17.5539 26.8597 17.4099C26.9228 17.266 27.015 17.1362 27.1308 17.0285C27.2466 16.9209 27.3836 16.8376 27.5332 16.7838C27.6829 16.7299 27.8422 16.7067 28.0013 16.7156H30.1874C30.3465 16.7067 30.5057 16.7299 30.6554 16.7838C30.805 16.8376 30.942 16.9209 31.0578 17.0285C31.1736 17.1362 31.2658 17.266 31.3289 17.4099C31.3919 17.5539 31.4245 17.709 31.4245 17.8657C31.4245 18.0225 31.3919 18.1775 31.3289 18.3215C31.2658 18.4654 31.1736 18.5952 31.0578 18.7029C30.942 18.8106 30.805 18.8939 30.6554 18.9477C30.5057 19.0015 30.3465 19.0247 30.1874 19.0158ZM28.0013 17.3958C27.935 17.39 27.8682 17.3979 27.8052 17.4189C27.7422 17.4399 27.6843 17.4736 27.6352 17.5178C27.5861 17.562 27.5469 17.6157 27.5201 17.6756C27.4933 17.7355 27.4795 17.8003 27.4795 17.8657C27.4795 17.9312 27.4933 17.9959 27.5201 18.0558C27.5469 18.1157 27.5861 18.1695 27.6352 18.2137C27.6843 18.2579 27.7422 18.2915 27.8052 18.3125C27.8682 18.3335 27.935 18.3414 28.0013 18.3356H30.1874C30.3068 18.3253 30.4179 18.2713 30.4989 18.1843C30.5799 18.0973 30.6248 17.9836 30.6248 17.8657C30.6248 17.7478 30.5799 17.6341 30.4989 17.5471C30.4179 17.4602 30.3068 17.4062 30.1874 17.3958H28.0013Z" fill="#2B4A8E"/>
<path d="M56.533 17.9944C56.6044 17.5617 56.3057 17.1541 55.8659 17.0839C55.4261 17.0137 55.0117 17.3074 54.9403 17.7401C54.8689 18.1727 55.1676 18.5803 55.6074 18.6505C56.0472 18.7208 56.4616 18.427 56.533 17.9944Z" fill="#2B4A8E"/>
<path d="M55.7327 19.0012C55.5037 19.0019 55.2797 18.9357 55.0889 18.811C54.8982 18.6863 54.7495 18.5087 54.6615 18.3008C54.5735 18.0928 54.5503 17.8638 54.5948 17.6429C54.6393 17.4219 54.7495 17.2189 54.9114 17.0596C55.0733 16.9003 55.2797 16.7919 55.5043 16.7482C55.729 16.7044 55.9618 16.7272 56.1732 16.8138C56.3846 16.9003 56.5652 17.0467 56.692 17.2342C56.8187 17.4218 56.886 17.6422 56.8853 17.8675C56.8853 18.0164 56.8555 18.1638 56.7975 18.3013C56.7396 18.4389 56.6547 18.5638 56.5477 18.6691C56.4407 18.7744 56.3136 18.8579 56.1738 18.9149C56.034 18.9718 55.8841 19.0012 55.7327 19.0012ZM55.7327 17.414C55.6415 17.414 55.5524 17.4406 55.4766 17.4904C55.4008 17.5403 55.3417 17.6111 55.3068 17.694C55.2719 17.7768 55.2628 17.868 55.2806 17.956C55.2984 18.0439 55.3423 18.1247 55.4067 18.1881C55.4712 18.2516 55.5534 18.2948 55.6428 18.3122C55.7322 18.3297 55.8249 18.3208 55.9091 18.2864C55.9934 18.2521 56.0654 18.194 56.116 18.1194C56.1667 18.0449 56.1937 17.9572 56.1937 17.8675C56.1937 17.7472 56.1452 17.6319 56.0587 17.5468C55.9723 17.4618 55.855 17.414 55.7327 17.414Z" fill="#2B4A8E"/>
<path d="M53.3265 18.0955C53.4543 17.6757 53.2119 17.2334 52.7851 17.1076C52.3582 16.9819 51.9086 17.2204 51.7807 17.6402C51.6529 18.0601 51.8953 18.5024 52.3222 18.6281C52.749 18.7538 53.1987 18.5154 53.3265 18.0955Z" fill="#2B4A8E"/>
<path d="M52.5501 19.0012C52.3211 19.0019 52.097 18.9357 51.9063 18.811C51.7156 18.6863 51.5668 18.5087 51.4789 18.3008C51.3909 18.0928 51.3677 17.8638 51.4122 17.6429C51.4567 17.4219 51.5669 17.2189 51.7288 17.0596C51.8907 16.9003 52.0971 16.7919 52.3217 16.7482C52.5464 16.7044 52.7792 16.7272 52.9906 16.8138C53.202 16.9003 53.3826 17.0467 53.5093 17.2342C53.6361 17.4218 53.7034 17.6422 53.7027 17.8675C53.7027 18.0164 53.6728 18.1638 53.6149 18.3013C53.557 18.4389 53.4721 18.5638 53.3651 18.6691C53.2581 18.7744 53.131 18.8579 52.9912 18.9149C52.8513 18.9718 52.7015 19.0012 52.5501 19.0012ZM52.5501 17.414C52.4589 17.414 52.3698 17.4406 52.294 17.4904C52.2182 17.5403 52.1591 17.6111 52.1242 17.694C52.0893 17.7768 52.0802 17.868 52.098 17.956C52.1157 18.0439 52.1596 18.1247 52.2241 18.1881C52.2886 18.2516 52.3707 18.2948 52.4602 18.3122C52.5496 18.3297 52.6423 18.3208 52.7265 18.2864C52.8108 18.2521 52.8828 18.194 52.9334 18.1194C52.9841 18.0449 53.0111 17.9572 53.0111 17.8675C53.0111 17.7472 52.9626 17.6319 52.8761 17.5468C52.7896 17.4618 52.6724 17.414 52.5501 17.414Z" fill="#2B4A8E"/>
<path d="M49.3717 18.6611C49.8173 18.6611 50.1785 18.3058 50.1785 17.8675C50.1785 17.4292 49.8173 17.0739 49.3717 17.0739C48.9261 17.0739 48.5649 17.4292 48.5649 17.8675C48.5649 18.3058 48.9261 18.6611 49.3717 18.6611Z" fill="#2B4A8E"/>
<path d="M49.368 19.0012C49.139 19.0019 48.9149 18.9357 48.7242 18.811C48.5335 18.6863 48.3847 18.5087 48.2967 18.3008C48.2088 18.0928 48.1855 17.8638 48.23 17.6429C48.2745 17.4219 48.3847 17.2189 48.5467 17.0596C48.7086 16.9003 48.915 16.7919 49.1396 16.7482C49.3642 16.7044 49.597 16.7272 49.8085 16.8138C50.0199 16.9003 50.2004 17.0467 50.3272 17.2342C50.454 17.4218 50.5213 17.6422 50.5205 17.8675C50.5205 18.0164 50.4907 18.1638 50.4328 18.3013C50.3749 18.4389 50.29 18.5638 50.183 18.6691C50.0759 18.7744 49.9489 18.8579 49.809 18.9149C49.6692 18.9718 49.5193 19.0012 49.368 19.0012ZM49.368 17.414C49.2768 17.414 49.1877 17.4406 49.1119 17.4904C49.036 17.5403 48.9769 17.6111 48.9421 17.694C48.9072 17.7768 48.898 17.868 48.9158 17.956C48.9336 18.0439 48.9775 18.1247 49.042 18.1881C49.1065 18.2516 49.1886 18.2948 49.278 18.3122C49.3675 18.3297 49.4602 18.3208 49.5444 18.2864C49.6286 18.2521 49.7006 18.194 49.7513 18.1194C49.802 18.0449 49.829 17.9572 49.829 17.8675C49.829 17.7472 49.7804 17.6319 49.694 17.5468C49.6075 17.4618 49.4903 17.414 49.368 17.414Z" fill="#2B4A8E"/>
<path d="M26.2758 48.1916C25.8754 47.2408 25.6694 46.2216 25.6694 45.1924C25.6695 44.1632 25.8756 43.144 26.2761 42.1932C26.6766 41.2423 27.2636 40.3784 28.0035 39.6507C28.7434 38.923 29.6219 38.3457 30.5886 37.952C31.554 37.5625 32.5891 37.3673 33.6325 37.378C34.6759 37.3887 35.7066 37.605 36.6636 38.0141C38.6101 38.8325 40.1475 40.3764 40.9392 42.3075L38.8274 43.1523C38.5474 42.4662 38.1327 41.8412 37.607 41.3129C37.0814 40.7845 36.4551 40.3632 35.7639 40.073C35.084 39.7822 34.3519 39.6281 33.6105 39.6199C32.8692 39.6118 32.1337 39.7497 31.4474 40.0255C30.0568 40.5976 28.9536 41.689 28.38 43.0602C27.8063 44.4314 27.8091 45.9704 28.3876 47.3396L26.2758 48.1916Z" fill="#2B4A8E"/>
<path d="M46.2299 48.0892C44.6387 48.0841 43.0851 47.6133 41.7668 46.7367C40.4486 45.8601 39.4254 44.6174 38.8276 43.1669L40.9394 42.3221C41.2187 42.9964 41.6302 43.6099 42.1506 44.1278C42.6709 44.6456 43.2898 45.0575 43.972 45.3401C44.6542 45.6226 45.3863 45.7702 46.1265 45.7744C46.8667 45.7787 47.6004 45.6395 48.2859 45.3648C48.9714 45.0901 49.5952 44.6852 50.1216 44.1734C50.6481 43.6616 51.0668 43.0528 51.3541 42.3818C51.6413 41.7107 51.7914 40.9906 51.7957 40.2626C51.8 39.5345 51.6585 38.8127 51.3792 38.1385L53.491 37.2937C54.2976 39.2143 54.2964 41.3712 53.4879 43.291C52.6793 45.2108 51.1293 46.7366 49.1782 47.5334C48.241 47.9035 47.2399 48.0923 46.2299 48.0892Z" fill="#2B4A8E"/>
</g>
<defs>
<clipPath id="clip0">
<rect width="43.7037" height="54.2667" fill="white" transform="translate(18 13)"/>
</clipPath>
</defs>
</svg>
