<svg width="80" height="80" viewBox="0 0 80 80" fill="none" xmlns="http://www.w3.org/2000/svg">
<circle cx="40" cy="40" r="40" fill="#EFF3FA"/>
<path fill-rule="evenodd" clip-rule="evenodd" d="M28 28H32V26H48V28H52V26H56.0001V32H24.0001V26H28V28ZM24.0001 36V56H56.0001V36H24.0001ZM32 22H48V20H52V22H56C58.2091 22 60 23.7909 60 26V56C60 58.2091 58.2091 60 56 60H24C21.7909 60 20 58.2091 20 56V26C20 23.7909 21.7909 22 24 22H28V20H32V22Z" fill="#2B4A8E"/>
<path fill-rule="evenodd" clip-rule="evenodd" d="M42 44H38V40H42V44ZM50 44H46V40H50V44ZM30 52H34V48H30V52ZM42 52H38V48H42V52ZM30 44H34V40H30V44Z" fill="#FDC20F"/>
</svg>
