<svg width="80" height="80" viewBox="0 0 80 80" fill="none" xmlns="http://www.w3.org/2000/svg">
<circle cx="40" cy="40" r="40" fill="#EFF3FA"/>
<g clip-path="url(#clip0)">
<path d="M71.3662 48.4057H7.74071C6.7467 48.4002 5.79528 48.0006 5.09435 47.2942C4.39343 46.5879 3.99998 45.6322 4 44.636V20.7446C4.00662 19.7491 4.40585 18.7967 5.11058 18.0952C5.8153 17.3937 6.7683 17 7.76161 17H71.3704C72.3601 17.0055 73.3077 17.4016 74.008 18.1026C74.7082 18.8035 75.1045 19.7528 75.1111 20.7446V44.657C75.1056 45.6502 74.7092 46.6012 74.0079 47.3031C73.3067 48.0051 72.3574 48.4013 71.3662 48.4057ZM7.74071 19.178C7.32575 19.178 6.92772 19.343 6.63391 19.6366C6.3401 19.9303 6.17448 20.3287 6.17337 20.7446V44.657C6.17337 45.0736 6.3385 45.4731 6.63244 45.7676C6.92637 46.0622 7.32503 46.2277 7.74071 46.2277H71.3662C71.7812 46.2266 72.1788 46.0606 72.4718 45.7662C72.7648 45.4717 72.9294 45.0728 72.9294 44.657V20.7446C72.9272 20.3291 72.7612 19.9313 72.4676 19.6378C72.1741 19.3444 71.7767 19.1791 71.362 19.178H7.74071Z" fill="#2B4A8E"/>
<path d="M62.2674 36.6903H16.8522C16.7137 36.6814 16.5747 36.7011 16.444 36.7481C16.3133 36.7951 16.1936 36.8684 16.0924 36.9636C15.9911 37.0588 15.9103 37.1738 15.8551 37.3015C15.8 37.4292 15.7715 37.5669 15.7715 37.7061C15.7715 37.8452 15.8 37.9829 15.8551 38.1106C15.9103 38.2383 15.9911 38.3533 16.0924 38.4485C16.1936 38.5437 16.3133 38.617 16.444 38.664C16.5747 38.711 16.7137 38.7307 16.8522 38.7218H62.2674C62.5249 38.7052 62.7665 38.591 62.9431 38.4023C63.1196 38.2136 63.2179 37.9647 63.2179 37.7061C63.2179 37.4474 63.1196 37.1985 62.9431 37.0098C62.7665 36.8211 62.5249 36.7069 62.2674 36.6903Z" fill="#2B4A8E"/>
<path d="M62.2672 40.9752H16.8521C16.5827 40.9752 16.3244 41.0825 16.1339 41.2733C15.9434 41.4642 15.8364 41.7231 15.8364 41.993C15.8364 42.263 15.9434 42.5219 16.1339 42.7127C16.3244 42.9036 16.5827 43.0109 16.8521 43.0109H62.2672C62.5366 43.0109 62.7949 42.9036 62.9854 42.7127C63.1759 42.5219 63.2829 42.263 63.2829 41.993C63.2829 41.7231 63.1759 41.4642 62.9854 41.2733C62.7949 41.0825 62.5366 40.9752 62.2672 40.9752Z" fill="#2B4A8E"/>
<path d="M34.2643 28.4473H37.6539L36.0155 31.0735C35.8673 31.312 35.8193 31.5996 35.882 31.8735C35.9446 32.1474 36.1128 32.3853 36.3499 32.5353C36.5842 32.6836 36.8675 32.7333 37.1382 32.6738C37.4089 32.6142 37.6452 32.45 37.796 32.217L39.5472 29.4107L41.3027 32.217C41.3762 32.3352 41.4723 32.4378 41.5854 32.5189C41.6985 32.5999 41.8264 32.6579 41.9619 32.6894C42.0973 32.7209 42.2376 32.7253 42.3748 32.7025C42.512 32.6796 42.6433 32.63 42.7613 32.5563C42.8793 32.4825 42.9817 32.3863 43.0626 32.2729C43.1435 32.1596 43.2013 32.0314 43.2327 31.8956C43.2641 31.7599 43.2686 31.6193 43.2458 31.4818C43.223 31.3443 43.1734 31.2127 43.0999 31.0944L41.4615 28.4473H44.8511C45.1206 28.4303 45.3735 28.3111 45.5584 28.1138C45.7432 27.9165 45.8461 27.6561 45.8461 27.3855C45.8461 27.1149 45.7432 26.8544 45.5584 26.6572C45.3735 26.4599 45.1206 26.3407 44.8511 26.3237H41.4615L43.0999 23.7017C43.1858 23.5856 43.2472 23.4532 43.2803 23.3126C43.3135 23.172 43.3177 23.0261 43.2928 22.8838C43.2678 22.7414 43.2142 22.6057 43.1352 22.4849C43.0561 22.364 42.9534 22.2605 42.8331 22.1808C42.7129 22.101 42.5777 22.0466 42.4358 22.021C42.294 21.9953 42.1483 21.9988 42.0079 22.0314C41.8674 22.064 41.735 22.1249 41.6188 22.2104C41.5026 22.2959 41.405 22.4043 41.3319 22.5289C41.3198 22.5426 41.3099 22.5581 41.3027 22.5749L39.5514 25.3813L37.796 22.5833C37.7252 22.4634 37.6315 22.3586 37.5203 22.275C37.4091 22.1914 37.2826 22.1305 37.1479 22.0959C37.0132 22.0613 36.8731 22.0536 36.7354 22.0733C36.5978 22.0929 36.4654 22.1396 36.3457 22.2105C36.226 22.2815 36.1215 22.3754 36.0381 22.4868C35.9546 22.5983 35.8939 22.7251 35.8593 22.86C35.8248 22.995 35.8171 23.1355 35.8367 23.2734C35.8564 23.4113 35.9029 23.5441 35.9737 23.664L35.9988 23.71L37.6372 26.3321H34.2643C34.0042 26.3605 33.7638 26.4842 33.5891 26.6794C33.4145 26.8746 33.3179 27.1275 33.3179 27.3897C33.3179 27.6518 33.4145 27.9048 33.5891 28.1C33.7638 28.2952 34.0042 28.4188 34.2643 28.4473Z" fill="#2B4A8E"/>
<path d="M26.8244 54.7514C26.8244 53.7838 28.0448 52.7367 28.4711 52.4476C28.5869 52.3704 28.6864 52.271 28.7639 52.1552C28.8414 52.0394 28.8954 51.9094 28.9227 51.7727C28.9501 51.636 28.9503 51.4952 28.9234 51.3584C28.8965 51.2216 28.8429 51.0914 28.7658 50.9754C28.6887 50.8593 28.5895 50.7596 28.4739 50.682C28.3584 50.6043 28.2287 50.5502 28.0923 50.5228C27.9558 50.4954 27.8154 50.4952 27.6789 50.5221C27.5424 50.5491 27.4125 50.6028 27.2967 50.6801C27.0292 50.856 24.7012 52.4812 24.7012 54.7514C24.7687 55.824 25.2391 56.8312 26.0177 57.5702C26.5151 58.1524 26.8244 58.5336 26.8244 59.0027C26.8244 59.9703 25.5998 61.0174 25.1526 61.3064C24.9315 61.4684 24.7814 61.7096 24.7336 61.9798C24.6859 62.25 24.7442 62.5283 24.8963 62.7565C25.0485 62.9846 25.2827 63.1451 25.5501 63.2042C25.8175 63.2634 26.0973 63.2167 26.3312 63.074C26.5945 62.8981 28.9225 61.2729 28.9225 59.0027C28.8568 57.9308 28.3861 56.9243 27.606 56.188C27.1337 55.6058 26.8244 55.2247 26.8244 54.7514Z" fill="#2B4A8E"/>
<path d="M33.186 54.7514C33.186 53.7839 34.4106 52.7367 34.8579 52.4477C35.0789 52.2858 35.229 52.0445 35.2768 51.7743C35.3245 51.5041 35.2662 51.2259 35.1141 50.9977C34.962 50.7695 34.7277 50.6091 34.4603 50.5499C34.193 50.4908 33.9131 50.5374 33.6792 50.6802C33.4159 50.8561 31.0879 52.4812 31.0879 54.7514C31.1518 55.8241 31.6211 56.8321 32.4003 57.5703C32.9018 58.1525 33.2069 58.5337 33.2069 59.0028C33.2069 59.9704 31.9865 61.0175 31.5351 61.3065C31.314 61.4684 31.1639 61.7097 31.1162 61.9799C31.0684 62.2501 31.1267 62.5284 31.2789 62.7566C31.431 62.9847 31.6652 63.1451 31.9326 63.2043C32.2 63.2635 32.4799 63.2168 32.7137 63.0741C32.9812 62.8982 35.3093 61.273 35.3093 59.0028C35.2419 57.9313 34.7714 56.9254 33.9927 56.1881C33.4995 55.6059 33.1902 55.2247 33.1902 54.7514H33.186Z" fill="#2B4A8E"/>
<path d="M39.5473 54.7514C39.5473 53.7838 40.7719 52.7367 41.2191 52.4476C41.3349 52.3704 41.4344 52.271 41.5119 52.1552C41.5894 52.0394 41.6433 51.9094 41.6707 51.7727C41.698 51.636 41.6983 51.4952 41.6713 51.3584C41.6444 51.2216 41.5909 51.0914 41.5137 50.9754C41.4366 50.8593 41.3375 50.7596 41.2219 50.682C41.1063 50.6043 40.9766 50.5502 40.8402 50.5228C40.7038 50.4954 40.5633 50.4952 40.4268 50.5221C40.2903 50.5491 40.1604 50.6028 40.0446 50.6801C39.7771 50.856 37.4491 52.4812 37.4491 54.7514C37.5166 55.824 37.9871 56.8312 38.7657 57.5702C39.263 58.1525 39.5723 58.5336 39.5723 59.0027C39.5723 59.9703 38.3519 61.0174 37.9005 61.3064C37.7782 61.3811 37.6723 61.4797 37.589 61.5964C37.5058 61.7132 37.447 61.8456 37.4161 61.9857C37.3852 62.1258 37.3829 62.2707 37.4094 62.4117C37.4359 62.5527 37.4905 62.6869 37.5701 62.8062C37.6496 62.9255 37.7524 63.0274 37.8723 63.1058C37.9922 63.1843 38.1266 63.2376 38.2676 63.2627C38.4086 63.2877 38.5531 63.2839 38.6926 63.2514C38.8321 63.219 38.9636 63.1587 39.0791 63.074C39.3425 62.8981 41.6705 61.2729 41.6705 59.0027C41.605 57.9296 41.1343 56.9217 40.3539 56.1838C39.8565 55.6058 39.5514 55.2247 39.5514 54.7514H39.5473Z" fill="#2B4A8E"/>
<path d="M45.9128 54.7514C45.9128 53.7838 47.1332 52.7367 47.5595 52.4476C47.6753 52.3704 47.7748 52.271 47.8523 52.1552C47.9298 52.0394 47.9838 51.9094 48.0111 51.7727C48.0385 51.636 48.0387 51.4952 48.0118 51.3584C47.9848 51.2216 47.9313 51.0914 47.8542 50.9754C47.7771 50.8593 47.6779 50.7596 47.5623 50.682C47.4468 50.6043 47.3171 50.5502 47.1806 50.5228C47.0442 50.4954 46.9038 50.4952 46.7672 50.5221C46.6307 50.5491 46.5009 50.6028 46.3851 50.6801C46.1176 50.856 43.7896 52.4812 43.7896 54.7514C43.8571 55.824 44.3275 56.8312 45.1061 57.5702C45.6077 58.1524 45.9128 58.5336 45.9128 59.0027C45.9128 59.9703 44.6882 61.0174 44.2409 61.3064C44.0199 61.4684 43.8698 61.7096 43.822 61.9798C43.7743 62.25 43.8326 62.5283 43.9847 62.7565C44.1368 62.9846 44.3711 63.1451 44.6385 63.2042C44.9059 63.2634 45.1857 63.2167 45.4196 63.074C45.6829 62.8981 48.0109 61.2729 48.0109 59.0027C47.9451 57.9317 47.476 56.9257 46.6985 56.188C46.2012 55.6058 45.8961 55.2247 45.8961 54.7514H45.9128Z" fill="#2B4A8E"/>
<path d="M52.2739 54.7514C52.2739 53.7839 53.4985 52.7367 53.9458 52.4477C54.1668 52.2858 54.3169 52.0445 54.3647 51.7743C54.4124 51.5041 54.3541 51.2259 54.202 50.9977C54.0499 50.7695 53.8156 50.6091 53.5482 50.5499C53.2808 50.4908 53.001 50.5374 52.7671 50.6802C52.5038 50.8561 50.1758 52.4812 50.1758 54.7514C50.2426 55.8234 50.7114 56.8303 51.4882 57.5703C51.9897 58.1525 52.2948 58.5337 52.2948 59.0028C52.2948 59.9704 51.0744 61.0175 50.623 61.3065C50.4019 61.4684 50.2518 61.7097 50.2041 61.9799C50.1563 62.2501 50.2146 62.5284 50.3667 62.7566C50.5189 62.9847 50.7531 63.1451 51.0205 63.2043C51.2879 63.2635 51.5678 63.2168 51.8016 63.0741C52.0691 62.8982 54.3971 61.273 54.3971 59.0028C54.3298 57.9313 53.8593 56.9254 53.0806 56.1881C52.579 55.6059 52.2781 55.2247 52.2781 54.7514H52.2739Z" fill="#2B4A8E"/>
</g>
<defs>
<clipPath id="clip0">
<rect width="71.1111" height="46.2583" fill="white" transform="translate(4 17)"/>
</clipPath>
</defs>
</svg>
